<svg width="121" height="24" viewBox="0 0 121 24" xmlns="http://www.w3.org/2000/svg" xmlns:xlink="http://www.w3.org/1999/xlink">
    <path id="Path" fill="#000000" fill-rule="evenodd" stroke="none" d="M 18.259501 4.906469 C 18.259501 4.253839 17.9053 3.6511 17.33 3.32478 L 12.0302 0.318466 C 11.4551 -0.007849 10.7465 -0.007849 10.1716 0.318466 L 8.80526 1.09341 L 15.6093 4.953199 C 15.8287 5.077629 15.9639 5.30752 15.9639 5.55636 L 15.9639 13.2762 L 18.2495 11.9795 L 18.259501 11.9738 L 18.259501 4.906469 Z M 14.545 8.56322 L 14.545 5.959011 L 8.31613 2.425329 C 7.74104 2.09901 7.03246 2.09901 6.45737 2.425329 L 1.15708 5.43185 C 0.582208 5.757959 0.228027 6.36091 0.228027 7.01333 L 0.228027 8.56343 L 7.03203 4.70364 C 7.25165 4.57901 7.52206 4.57901 7.74147 4.70364 L 14.545 8.56322 Z M 21.9739 7.01338 L 21.9739 13.0264 C 21.9739 13.6789 21.619499 14.2818 21.0446 14.6081 L 12.2486 19.597799 L 12.2486 16.993401 L 19.323799 12.9799 C 19.542999 12.8555 19.6782 12.6254 19.6782 12.3765 L 19.6782 4.65675 L 21.044399 5.4319 C 21.619499 5.758011 21.9739 6.36096 21.9739 7.01338 Z M 29.306601 9.52482 L 31.5114 8.27409 L 31.5114 6.58251 L 29.9312 6.58251 C 29.539801 6.58251 29.222401 6.89451 29.222401 7.27935 L 29.222401 9.57261 L 29.306601 9.52482 Z M 35.582298 6.58251 L 34.015999 6.58251 L 34.015999 17.0783 L 36.305199 17.0783 L 36.305199 10.1812 L 39.738602 14.3794 L 43.171799 10.1812 L 43.171799 17.0783 L 45.460999 17.0783 L 45.460999 6.58251 L 43.895 6.58251 C 43.582802 6.58251 43.287498 6.72208 43.092499 6.96166 L 39.738602 11.0808 L 36.384701 6.96166 C 36.189499 6.72208 35.894501 6.58251 35.582298 6.58251 Z M 49.639801 6.58251 L 48.0737 6.58251 L 48.0737 17.0783 L 50.3629 17.0783 L 50.3629 10.1812 L 53.796101 14.3794 L 57.229698 10.1812 L 57.229698 17.0783 L 59.5187 17.0783 L 59.5187 6.58251 L 57.952702 6.58251 C 57.640701 6.58251 57.3452 6.72208 57.1502 6.96166 L 53.796101 11.0808 L 50.4422 6.96166 C 50.2472 6.72208 49.952 6.58251 49.639801 6.58251 Z M 71.1847 12.7301 L 71.1847 6.58251 L 69.604698 6.58251 C 69.212997 6.58251 68.8955 6.89451 68.8955 7.27935 L 68.8955 12.7301 C 68.8955 14.2295 67.9188 15.2042 66.530602 15.2042 C 65.141998 15.2042 64.1651 14.2295 64.1651 12.7301 L 64.1651 7.27935 C 64.1651 6.89451 63.847599 6.58251 63.4561 6.58251 L 61.8759 6.58251 L 61.8759 12.7301 C 61.8759 14.8802 63.087601 16.505699 64.968597 17.0783 C 65.448799 17.2244 65.972 17.303101 66.530602 17.303101 C 67.088997 17.303101 67.612198 17.2244 68.0924 17.0783 C 69.973198 16.505699 71.1847 14.8802 71.1847 12.7301 Z M 81.127296 6.58251 L 81.127296 8.68167 L 78.0755 8.68167 L 78.0755 17.0783 L 75.786301 17.0783 L 75.786301 8.68167 L 72.734299 8.68167 L 72.734299 6.58251 L 81.127296 6.58251 Z M 85.148201 12.6551 L 86.414299 9.20643 L 86.475304 9.20643 L 87.742104 12.6551 L 85.148201 12.6551 Z M 84.894302 7.229031 L 81.027603 17.0783 L 83.4692 17.0783 L 84.384499 14.6791 L 88.505096 14.6791 L 89.420601 17.0783 L 91.862198 17.0783 L 87.996002 7.229031 C 87.843002 6.83956 87.4618 6.58251 87.037102 6.58251 L 85.853104 6.58251 C 85.4282 6.58251 85.047203 6.83956 84.894302 7.229031 Z M 95.598701 15.129 L 97.963501 15.129 C 98.879303 15.129 99.413498 14.6193 99.413498 13.8547 C 99.413498 13.0901 98.879303 12.5802 97.963501 12.5802 L 95.598701 12.5802 L 95.598701 15.129 Z M 97.6586 8.53173 L 95.598701 8.53173 L 95.598701 10.6309 L 97.6586 10.6309 C 98.436798 10.6309 98.879303 10.1812 98.879303 9.58121 C 98.879303 8.98163 98.436798 8.53173 97.6586 8.53173 Z M 100.787003 12.0404 C 101.275002 12.4452 101.778999 13.06 101.778999 14.0796 C 101.778999 15.7139 100.389999 17.0783 98.116501 17.0783 L 93.309502 17.0783 L 93.309502 6.58251 L 97.811401 6.58251 C 99.947701 6.58251 101.245003 7.857029 101.245003 9.3564 C 101.245003 10.1962 100.878998 10.721 100.512001 11.0657 C 100.299004 11.2608 100.054001 11.4257 99.794899 11.5305 C 100.161003 11.6356 100.497002 11.8156 100.787003 12.0404 Z M 106.011002 14.9791 L 106.011002 7.27935 C 106.011002 6.89451 105.693001 6.58251 105.302002 6.58251 L 103.721001 6.58251 L 103.721001 17.0783 L 110.970001 17.0783 L 110.970001 14.9791 L 106.011002 14.9791 Z M 120.455002 6.58251 L 113.228996 6.58251 C 112.836998 6.58251 112.519997 6.89451 112.519997 7.27935 L 112.519997 16.381701 C 112.519997 16.7663 112.836998 17.0783 113.228996 17.0783 L 120.608002 17.0783 L 120.608002 14.9791 L 114.808998 14.9791 L 114.808998 12.7301 L 119.234001 12.7301 L 119.234001 10.7059 L 114.808998 10.7059 L 114.808998 8.68167 L 120.455002 8.68167 L 120.455002 6.58251 Z M 29.222401 10.8844 L 29.306601 10.8366 L 31.5114 9.58588 L 31.5114 17.0783 L 29.222401 17.0783 L 29.222401 10.8844 Z M 9.9529 23.811899 L 9.9529 21.207199 L 2.87828 17.1938 C 2.65866 17.0693 2.52345 16.839199 2.52345 16.5902 L 2.52345 11.8778 C 2.52345 11.6287 2.65866 11.3986 2.87828 11.2742 L 9.68228 7.414391 L 7.38664 6.11208 L 1.15708 9.64597 C 0.582208 9.97229 0.228027 10.575 0.228027 11.2274 L 0.228027 17.2407 C 0.228027 17.893101 0.582208 18.496099 1.15708 18.822201 L 9.9529 23.811899 Z M 21.9739 15.6908 L 21.9739 17.2409 C 21.9739 17.893299 21.619499 18.496201 21.0446 18.8223 L 12.2486 23.812 L 12.2486 21.207399 L 21.9739 15.6908 Z M 9.95289 16.9935 L 9.95289 19.5979 L 3.9421 16.188 L 3.9421 12.2802 L 6.23838 10.9775 L 6.23838 14.8863 L 9.95289 16.9935 Z"/>
</svg>
